<?xml version="1.0" encoding="UTF-8"?>
<svg width="1200" height="640" viewBox="0 0 1200 640" xmlns="http://www.w3.org/2000/svg" role="img" aria-labelledby="birchTitle birchDesc">
  <title id="birchTitle">Birch trunk with branch and leaves</title>
  <desc id="birchDesc">A minimalist birch illustration with a pale trunk on the left and a branch carrying bright green leaves.</desc>
  <defs>
    <linearGradient id="trunkShade" x1="0%" y1="0%" x2="100%" y2="0%">
      <stop offset="0%" stop-color="#fdfbf7" />
      <stop offset="100%" stop-color="#ede7dd" />
    </linearGradient>
    <linearGradient id="leafGradient" x1="0%" y1="0%" x2="100%" y2="100%">
      <stop offset="0%" stop-color="#9ad06f" />
      <stop offset="100%" stop-color="#4f8d4a" />
    </linearGradient>
  </defs>
  <rect width="1200" height="640" fill="none" />
  <rect x="0" y="0" width="190" height="640" fill="url(#trunkShade)" />
  <g stroke="#1d1b18" stroke-width="4" stroke-linecap="round" stroke-opacity="0.25">
    <path d="M32 48 v140" />
    <path d="M58 210 v140" />
    <path d="M92 120 v180" />
    <path d="M128 60 v210" />
    <path d="M154 260 v180" />
  </g>
  <path d="M180 260 C340 260 520 320 700 200" fill="none" stroke="#1c2018" stroke-width="10" stroke-linecap="round" />
  <path d="M320 250 C420 220 520 220 650 150" fill="none" stroke="#1c2018" stroke-width="6" stroke-linecap="round" />
  <path d="M540 220 C580 270 640 300 720 310" fill="none" stroke="#1c2018" stroke-width="6" stroke-linecap="round" />
  <g fill="url(#leafGradient)" stroke="#1b3b21" stroke-width="2" stroke-linejoin="round">
    <path d="M360 180 C400 150 460 150 480 200 C440 220 400 220 360 180" />
    <path d="M470 230 C520 210 560 210 590 250 C540 270 500 270 470 230" />
    <path d="M600 160 C650 140 700 140 720 190 C670 210 630 210 600 160" />
    <path d="M660 260 C715 240 760 240 780 280 C730 300 690 300 660 260" />
    <path d="M760 180 C810 160 850 160 870 210 C820 230 780 230 760 180" />
  </g>
  <g stroke="#1c2018" stroke-linecap="round" stroke-opacity="0.35">
    <path d="M200 120 v55" stroke-width="3" />
    <path d="M220 310 v70" stroke-width="3" />
    <path d="M240 460 v80" stroke-width="4" />
  </g>
</svg>
